<svg width="116" height="116" viewBox="0 0 116 116" fill="none" xmlns="http://www.w3.org/2000/svg">
<path d="M12.7619 8H8V12.5455H12.7619V8Z" fill="white"/>
<path d="M17.5238 8H12.7619V12.5455H17.5238V8Z" fill="white"/>
<path d="M22.2857 8H17.5238V12.5455H22.2857V8Z" fill="white"/>
<path d="M27.0475 8H22.2856V12.5455H27.0475V8Z" fill="white"/>
<path d="M31.8094 8H27.0475V12.5455H31.8094V8Z" fill="white"/>
<path d="M36.5713 8H31.8094V12.5455H36.5713V8Z" fill="white"/>
<path d="M41.3335 8H36.5716V12.5455H41.3335V8Z" fill="white"/>
<path d="M60.381 8H55.619V12.5455H60.381V8Z" fill="white"/>
<path d="M69.9047 8H65.1428V12.5455H69.9047V8Z" fill="white"/>
<path d="M79.4285 8H74.6666V12.5455H79.4285V8Z" fill="white"/>
<path d="M84.1904 8H79.4285V12.5455H84.1904V8Z" fill="white"/>
<path d="M88.9525 8H84.1906V12.5455H88.9525V8Z" fill="white"/>
<path d="M93.7144 8H88.9525V12.5455H93.7144V8Z" fill="white"/>
<path d="M98.4763 8H93.7144V12.5455H98.4763V8Z" fill="white"/>
<path d="M103.238 8H98.4763V12.5455H103.238V8Z" fill="white"/>
<path d="M108 8H103.238V12.5455H108V8Z" fill="white"/>
<path d="M12.7619 12.5458H8V17.0913H12.7619V12.5458Z" fill="white"/>
<path d="M41.3335 12.5458H36.5716V17.0913H41.3335V12.5458Z" fill="white"/>
<path d="M69.9047 12.5458H65.1428V17.0913H69.9047V12.5458Z" fill="white"/>
<path d="M79.4285 12.5458H74.6666V17.0913H79.4285V12.5458Z" fill="white"/>
<path d="M108 12.5458H103.238V17.0913H108V12.5458Z" fill="white"/>
<path d="M12.7619 17.0903H8V21.6358H12.7619V17.0903Z" fill="white"/>
<path d="M22.2857 17.0903H17.5238V21.6358H22.2857V17.0903Z" fill="white"/>
<path d="M27.0475 17.0903H22.2856V21.6358H27.0475V17.0903Z" fill="white"/>
<path d="M31.8094 17.0903H27.0475V21.6358H31.8094V17.0903Z" fill="white"/>
<path d="M41.3335 17.0903H36.5716V21.6358H41.3335V17.0903Z" fill="white"/>
<path d="M50.8572 17.0903H46.0953V21.6358H50.8572V17.0903Z" fill="white"/>
<path d="M60.381 17.0903H55.619V21.6358H60.381V17.0903Z" fill="white"/>
<path d="M79.4285 17.0903H74.6666V21.6358H79.4285V17.0903Z" fill="white"/>
<path d="M88.9525 17.0903H84.1906V21.6358H88.9525V17.0903Z" fill="white"/>
<path d="M93.7144 17.0903H88.9525V21.6358H93.7144V17.0903Z" fill="white"/>
<path d="M98.4763 17.0903H93.7144V21.6358H98.4763V17.0903Z" fill="white"/>
<path d="M108 17.0903H103.238V21.6358H108V17.0903Z" fill="white"/>
<path d="M12.7619 21.6361H8V26.1816H12.7619V21.6361Z" fill="white"/>
<path d="M22.2857 21.6361H17.5238V26.1816H22.2857V21.6361Z" fill="white"/>
<path d="M27.0475 21.6361H22.2856V26.1816H27.0475V21.6361Z" fill="white"/>
<path d="M31.8094 21.6361H27.0475V26.1816H31.8094V21.6361Z" fill="white"/>
<path d="M41.3335 21.6361H36.5716V26.1816H41.3335V21.6361Z" fill="white"/>
<path d="M69.9047 21.6361H65.1428V26.1816H69.9047V21.6361Z" fill="white"/>
<path d="M79.4285 21.6361H74.6666V26.1816H79.4285V21.6361Z" fill="white"/>
<path d="M88.9525 21.6361H84.1906V26.1816H88.9525V21.6361Z" fill="white"/>
<path d="M93.7144 21.6361H88.9525V26.1816H93.7144V21.6361Z" fill="white"/>
<path d="M98.4763 21.6361H93.7144V26.1816H98.4763V21.6361Z" fill="white"/>
<path d="M108 21.6361H103.238V26.1816H108V21.6361Z" fill="white"/>
<path d="M12.7619 26.1823H8V30.7277H12.7619V26.1823Z" fill="white"/>
<path d="M22.2857 26.1823H17.5238V30.7277H22.2857V26.1823Z" fill="white"/>
<path d="M27.0475 26.1823H22.2856V30.7277H27.0475V26.1823Z" fill="white"/>
<path d="M31.8094 26.1823H27.0475V30.7277H31.8094V26.1823Z" fill="white"/>
<path d="M41.3335 26.1823H36.5716V30.7277H41.3335V26.1823Z" fill="white"/>
<path d="M55.6191 26.1823H50.8572V30.7277H55.6191V26.1823Z" fill="white"/>
<path d="M65.1429 26.1823H60.381V30.7277H65.1429V26.1823Z" fill="white"/>
<path d="M69.9047 26.1823H65.1428V30.7277H69.9047V26.1823Z" fill="white"/>
<path d="M79.4285 26.1823H74.6666V30.7277H79.4285V26.1823Z" fill="white"/>
<path d="M88.9525 26.1823H84.1906V30.7277H88.9525V26.1823Z" fill="white"/>
<path d="M93.7144 26.1823H88.9525V30.7277H93.7144V26.1823Z" fill="white"/>
<path d="M98.4763 26.1823H93.7144V30.7277H98.4763V26.1823Z" fill="white"/>
<path d="M108 26.1823H103.238V30.7277H108V26.1823Z" fill="white"/>
<path d="M12.7619 30.7272H8V35.2727H12.7619V30.7272Z" fill="white"/>
<path d="M41.3335 30.7272H36.5716V35.2727H41.3335V30.7272Z" fill="white"/>
<path d="M55.6191 30.7272H50.8572V35.2727H55.6191V30.7272Z" fill="white"/>
<path d="M60.381 30.7272H55.619V35.2727H60.381V30.7272Z" fill="white"/>
<path d="M65.1429 30.7272H60.381V35.2727H65.1429V30.7272Z" fill="white"/>
<path d="M79.4285 30.7272H74.6666V35.2727H79.4285V30.7272Z" fill="white"/>
<path d="M108 30.7272H103.238V35.2727H108V30.7272Z" fill="white"/>
<path d="M12.7619 35.2728H8V39.8182H12.7619V35.2728Z" fill="white"/>
<path d="M17.5238 35.2728H12.7619V39.8182H17.5238V35.2728Z" fill="white"/>
<path d="M22.2857 35.2728H17.5238V39.8182H22.2857V35.2728Z" fill="white"/>
<path d="M27.0475 35.2728H22.2856V39.8182H27.0475V35.2728Z" fill="white"/>
<path d="M31.8094 35.2728H27.0475V39.8182H31.8094V35.2728Z" fill="white"/>
<path d="M36.5713 35.2728H31.8094V39.8182H36.5713V35.2728Z" fill="white"/>
<path d="M41.3335 35.2728H36.5716V39.8182H41.3335V35.2728Z" fill="white"/>
<path d="M50.8572 35.2728H46.0953V39.8182H50.8572V35.2728Z" fill="white"/>
<path d="M60.381 35.2728H55.619V39.8182H60.381V35.2728Z" fill="white"/>
<path d="M69.9047 35.2728H65.1428V39.8182H69.9047V35.2728Z" fill="white"/>
<path d="M79.4285 35.2728H74.6666V39.8182H79.4285V35.2728Z" fill="white"/>
<path d="M84.1904 35.2728H79.4285V39.8182H84.1904V35.2728Z" fill="white"/>
<path d="M88.9525 35.2728H84.1906V39.8182H88.9525V35.2728Z" fill="white"/>
<path d="M93.7144 35.2728H88.9525V39.8182H93.7144V35.2728Z" fill="white"/>
<path d="M98.4763 35.2728H93.7144V39.8182H98.4763V35.2728Z" fill="white"/>
<path d="M103.238 35.2728H98.4763V39.8182H103.238V35.2728Z" fill="white"/>
<path d="M108 35.2728H103.238V39.8182H108V35.2728Z" fill="white"/>
<path d="M50.8572 39.8177H46.0953V44.3632H50.8572V39.8177Z" fill="white"/>
<path d="M60.381 39.8177H55.619V44.3632H60.381V39.8177Z" fill="white"/>
<path d="M12.7619 44.3638H8V48.9093H12.7619V44.3638Z" fill="white"/>
<path d="M17.5238 44.3638H12.7619V48.9093H17.5238V44.3638Z" fill="white"/>
<path d="M22.2857 44.3638H17.5238V48.9093H22.2857V44.3638Z" fill="white"/>
<path d="M31.8094 44.3638H27.0475V48.9093H31.8094V44.3638Z" fill="white"/>
<path d="M36.5713 44.3638H31.8094V48.9093H36.5713V44.3638Z" fill="white"/>
<path d="M41.3335 44.3638H36.5716V48.9093H41.3335V44.3638Z" fill="white"/>
<path d="M46.0953 44.3638H41.3334V48.9093H46.0953V44.3638Z" fill="white"/>
<path d="M50.8572 44.3638H46.0953V48.9093H50.8572V44.3638Z" fill="white"/>
<path d="M60.381 44.3638H55.619V48.9093H60.381V44.3638Z" fill="white"/>
<path d="M69.9047 44.3638H65.1428V48.9093H69.9047V44.3638Z" fill="white"/>
<path d="M74.6666 44.3638H69.9047V48.9093H74.6666V44.3638Z" fill="white"/>
<path d="M79.4285 44.3638H74.6666V48.9093H79.4285V44.3638Z" fill="white"/>
<path d="M98.4763 44.3638H93.7144V48.9093H98.4763V44.3638Z" fill="white"/>
<path d="M12.7619 48.9097H8V53.4551H12.7619V48.9097Z" fill="white"/>
<path d="M27.0475 48.9097H22.2856V53.4551H27.0475V48.9097Z" fill="white"/>
<path d="M31.8094 48.9097H27.0475V53.4551H31.8094V48.9097Z" fill="white"/>
<path d="M46.0953 48.9097H41.3334V53.4551H46.0953V48.9097Z" fill="white"/>
<path d="M60.381 48.9097H55.619V53.4551H60.381V48.9097Z" fill="white"/>
<path d="M65.1429 48.9097H60.381V53.4551H65.1429V48.9097Z" fill="white"/>
<path d="M79.4285 48.9097H74.6666V53.4551H79.4285V48.9097Z" fill="white"/>
<path d="M84.1904 48.9097H79.4285V53.4551H84.1904V48.9097Z" fill="white"/>
<path d="M88.9525 48.9097H84.1906V53.4551H88.9525V48.9097Z" fill="white"/>
<path d="M108 48.9097H103.238V53.4551H108V48.9097Z" fill="white"/>
<path d="M17.5238 53.4542H12.7619V57.9996H17.5238V53.4542Z" fill="white"/>
<path d="M31.8094 53.4542H27.0475V57.9996H31.8094V53.4542Z" fill="white"/>
<path d="M41.3335 53.4542H36.5716V57.9996H41.3335V53.4542Z" fill="white"/>
<path d="M55.6191 53.4542H50.8572V57.9996H55.6191V53.4542Z" fill="white"/>
<path d="M65.1429 53.4542H60.381V57.9996H65.1429V53.4542Z" fill="white"/>
<path d="M74.6666 53.4542H69.9047V57.9996H74.6666V53.4542Z" fill="white"/>
<path d="M88.9525 53.4542H84.1906V57.9996H88.9525V53.4542Z" fill="white"/>
<path d="M98.4763 53.4542H93.7144V57.9996H98.4763V53.4542Z" fill="white"/>
<path d="M103.238 53.4542H98.4763V57.9996H103.238V53.4542Z" fill="white"/>
<path d="M108 53.4542H103.238V57.9996H108V53.4542Z" fill="white"/>
<path d="M17.5238 58H12.7619V62.5455H17.5238V58Z" fill="white"/>
<path d="M31.8094 58H27.0475V62.5455H31.8094V58Z" fill="white"/>
<path d="M46.0953 58H41.3334V62.5455H46.0953V58Z" fill="white"/>
<path d="M50.8572 58H46.0953V62.5455H50.8572V58Z" fill="white"/>
<path d="M55.6191 58H50.8572V62.5455H55.6191V58Z" fill="white"/>
<path d="M65.1429 58H60.381V62.5455H65.1429V58Z" fill="white"/>
<path d="M69.9047 58H65.1428V62.5455H69.9047V58Z" fill="white"/>
<path d="M74.6666 58H69.9047V62.5455H74.6666V58Z" fill="white"/>
<path d="M88.9525 58H84.1906V62.5455H88.9525V58Z" fill="white"/>
<path d="M103.238 58H98.4763V62.5455H103.238V58Z" fill="white"/>
<path d="M22.2857 62.5458H17.5238V67.0913H22.2857V62.5458Z" fill="white"/>
<path d="M27.0475 62.5458H22.2856V67.0913H27.0475V62.5458Z" fill="white"/>
<path d="M36.5713 62.5458H31.8094V67.0913H36.5713V62.5458Z" fill="white"/>
<path d="M41.3335 62.5458H36.5716V67.0913H41.3335V62.5458Z" fill="white"/>
<path d="M46.0953 62.5458H41.3334V67.0913H46.0953V62.5458Z" fill="white"/>
<path d="M55.6191 62.5458H50.8572V67.0913H55.6191V62.5458Z" fill="white"/>
<path d="M65.1429 62.5458H60.381V67.0913H65.1429V62.5458Z" fill="white"/>
<path d="M79.4285 62.5458H74.6666V67.0913H79.4285V62.5458Z" fill="white"/>
<path d="M84.1904 62.5458H79.4285V67.0913H84.1904V62.5458Z" fill="white"/>
<path d="M93.7144 62.5458H88.9525V67.0913H93.7144V62.5458Z" fill="white"/>
<path d="M50.8572 67.0903H46.0953V71.6358H50.8572V67.0903Z" fill="white"/>
<path d="M55.6191 67.0903H50.8572V71.6358H55.6191V67.0903Z" fill="white"/>
<path d="M79.4285 67.0903H74.6666V71.6358H79.4285V67.0903Z" fill="white"/>
<path d="M84.1904 67.0903H79.4285V71.6358H84.1904V67.0903Z" fill="white"/>
<path d="M88.9525 67.0903H84.1906V71.6358H88.9525V67.0903Z" fill="white"/>
<path d="M103.238 67.0903H98.4763V71.6358H103.238V67.0903Z" fill="white"/>
<path d="M108 67.0903H103.238V71.6358H108V67.0903Z" fill="white"/>
<path d="M12.7619 71.6362H8V76.1817H12.7619V71.6362Z" fill="white"/>
<path d="M17.5238 71.6362H12.7619V76.1817H17.5238V71.6362Z" fill="white"/>
<path d="M22.2857 71.6362H17.5238V76.1817H22.2857V71.6362Z" fill="white"/>
<path d="M27.0475 71.6362H22.2856V76.1817H27.0475V71.6362Z" fill="white"/>
<path d="M31.8094 71.6362H27.0475V76.1817H31.8094V71.6362Z" fill="white"/>
<path d="M36.5713 71.6362H31.8094V76.1817H36.5713V71.6362Z" fill="white"/>
<path d="M41.3335 71.6362H36.5716V76.1817H41.3335V71.6362Z" fill="white"/>
<path d="M50.8572 71.6362H46.0953V76.1817H50.8572V71.6362Z" fill="white"/>
<path d="M55.6191 71.6362H50.8572V76.1817H55.6191V71.6362Z" fill="white"/>
<path d="M60.381 71.6362H55.619V76.1817H60.381V71.6362Z" fill="white"/>
<path d="M69.9047 71.6362H65.1428V76.1817H69.9047V71.6362Z" fill="white"/>
<path d="M88.9525 71.6362H84.1906V76.1817H88.9525V71.6362Z" fill="white"/>
<path d="M98.4763 71.6362H93.7144V76.1817H98.4763V71.6362Z" fill="white"/>
<path d="M103.238 71.6362H98.4763V76.1817H103.238V71.6362Z" fill="white"/>
<path d="M108 71.6362H103.238V76.1817H108V71.6362Z" fill="white"/>
<path d="M12.7619 76.1823H8V80.7277H12.7619V76.1823Z" fill="white"/>
<path d="M41.3335 76.1823H36.5716V80.7277H41.3335V76.1823Z" fill="white"/>
<path d="M50.8572 76.1823H46.0953V80.7277H50.8572V76.1823Z" fill="white"/>
<path d="M55.6191 76.1823H50.8572V80.7277H55.6191V76.1823Z" fill="white"/>
<path d="M79.4285 76.1823H74.6666V80.7277H79.4285V76.1823Z" fill="white"/>
<path d="M84.1904 76.1823H79.4285V80.7277H84.1904V76.1823Z" fill="white"/>
<path d="M88.9525 76.1823H84.1906V80.7277H88.9525V76.1823Z" fill="white"/>
<path d="M103.238 76.1823H98.4763V80.7277H103.238V76.1823Z" fill="white"/>
<path d="M12.7619 80.7273H8V85.2727H12.7619V80.7273Z" fill="white"/>
<path d="M22.2857 80.7273H17.5238V85.2727H22.2857V80.7273Z" fill="white"/>
<path d="M27.0475 80.7273H22.2856V85.2727H27.0475V80.7273Z" fill="white"/>
<path d="M31.8094 80.7273H27.0475V85.2727H31.8094V80.7273Z" fill="white"/>
<path d="M41.3335 80.7273H36.5716V85.2727H41.3335V80.7273Z" fill="white"/>
<path d="M50.8572 80.7273H46.0953V85.2727H50.8572V80.7273Z" fill="white"/>
<path d="M60.381 80.7273H55.619V85.2727H60.381V80.7273Z" fill="white"/>
<path d="M69.9047 80.7273H65.1428V85.2727H69.9047V80.7273Z" fill="white"/>
<path d="M79.4285 80.7273H74.6666V85.2727H79.4285V80.7273Z" fill="white"/>
<path d="M93.7144 80.7273H88.9525V85.2727H93.7144V80.7273Z" fill="white"/>
<path d="M12.7619 85.2727H8V89.8182H12.7619V85.2727Z" fill="white"/>
<path d="M22.2857 85.2727H17.5238V89.8182H22.2857V85.2727Z" fill="white"/>
<path d="M27.0475 85.2727H22.2856V89.8182H27.0475V85.2727Z" fill="white"/>
<path d="M31.8094 85.2727H27.0475V89.8182H31.8094V85.2727Z" fill="white"/>
<path d="M41.3335 85.2727H36.5716V89.8182H41.3335V85.2727Z" fill="white"/>
<path d="M55.6191 85.2727H50.8572V89.8182H55.6191V85.2727Z" fill="white"/>
<path d="M60.381 85.2727H55.619V89.8182H60.381V85.2727Z" fill="white"/>
<path d="M65.1429 85.2727H60.381V89.8182H65.1429V85.2727Z" fill="white"/>
<path d="M74.6666 85.2727H69.9047V89.8182H74.6666V85.2727Z" fill="white"/>
<path d="M88.9525 85.2727H84.1906V89.8182H88.9525V85.2727Z" fill="white"/>
<path d="M93.7144 85.2727H88.9525V89.8182H93.7144V85.2727Z" fill="white"/>
<path d="M103.238 85.2727H98.4763V89.8182H103.238V85.2727Z" fill="white"/>
<path d="M12.7619 89.8177H8V94.3632H12.7619V89.8177Z" fill="white"/>
<path d="M22.2857 89.8177H17.5238V94.3632H22.2857V89.8177Z" fill="white"/>
<path d="M27.0475 89.8177H22.2856V94.3632H27.0475V89.8177Z" fill="white"/>
<path d="M31.8094 89.8177H27.0475V94.3632H31.8094V89.8177Z" fill="white"/>
<path d="M41.3335 89.8177H36.5716V94.3632H41.3335V89.8177Z" fill="white"/>
<path d="M50.8572 89.8177H46.0953V94.3632H50.8572V89.8177Z" fill="white"/>
<path d="M65.1429 89.8177H60.381V94.3632H65.1429V89.8177Z" fill="white"/>
<path d="M74.6666 89.8177H69.9047V94.3632H74.6666V89.8177Z" fill="white"/>
<path d="M79.4285 89.8177H74.6666V94.3632H79.4285V89.8177Z" fill="white"/>
<path d="M88.9525 89.8177H84.1906V94.3632H88.9525V89.8177Z" fill="white"/>
<path d="M98.4763 89.8177H93.7144V94.3632H98.4763V89.8177Z" fill="white"/>
<path d="M108 89.8177H103.238V94.3632H108V89.8177Z" fill="white"/>
<path d="M12.7619 94.3639H8V98.9093H12.7619V94.3639Z" fill="white"/>
<path d="M41.3335 94.3639H36.5716V98.9093H41.3335V94.3639Z" fill="white"/>
<path d="M50.8572 94.3639H46.0953V98.9093H50.8572V94.3639Z" fill="white"/>
<path d="M55.6191 94.3639H50.8572V98.9093H55.6191V94.3639Z" fill="white"/>
<path d="M60.381 94.3639H55.619V98.9093H60.381V94.3639Z" fill="white"/>
<path d="M65.1429 94.3639H60.381V98.9093H65.1429V94.3639Z" fill="white"/>
<path d="M69.9047 94.3639H65.1428V98.9093H69.9047V94.3639Z" fill="white"/>
<path d="M74.6666 94.3639H69.9047V98.9093H74.6666V94.3639Z" fill="white"/>
<path d="M88.9525 94.3639H84.1906V98.9093H88.9525V94.3639Z" fill="white"/>
<path d="M103.238 94.3639H98.4763V98.9093H103.238V94.3639Z" fill="white"/>
<path d="M12.7619 98.9086H8V103.454H12.7619V98.9086Z" fill="white"/>
<path d="M12.7619 103.4H8V107.946H12.7619V103.4Z" fill="white"/>
<path d="M17.5238 98.9086H12.7619V103.454H17.5238V98.9086Z" fill="white"/>
<path d="M17.5238 103.4H12.7619V107.946H17.5238V103.4Z" fill="white"/>
<path d="M22.2858 98.9086H17.5239V103.454H22.2858V98.9086Z" fill="white"/>
<path d="M22.2858 103.4H17.5239V107.946H22.2858V103.4Z" fill="white"/>
<path d="M27.0476 98.9086H22.2857V103.454H27.0476V98.9086Z" fill="white"/>
<path d="M27.0476 103.4H22.2857V107.946H27.0476V103.4Z" fill="white"/>
<path d="M31.8095 98.9086H27.0476V103.454H31.8095V98.9086Z" fill="white"/>
<path d="M31.8095 103.4H27.0476V107.946H31.8095V103.4Z" fill="white"/>
<path d="M36.5715 98.9086H31.8095V103.454H36.5715V98.9086Z" fill="white"/>
<path d="M36.5715 103.4H31.8095V107.946H36.5715V103.4Z" fill="white"/>
<path d="M41.3333 98.9086H36.5714V103.454H41.3333V98.9086Z" fill="white"/>
<path d="M41.3333 103.4H36.5714V107.946H41.3333V103.4Z" fill="white"/>
<path d="M50.8571 98.9086H46.0952V103.454H50.8571V98.9086Z" fill="white"/>
<path d="M50.8571 103.4H46.0952V107.946H50.8571V103.4Z" fill="white"/>
<path d="M60.3809 98.9086H55.619V103.454H60.3809V98.9086Z" fill="white"/>
<path d="M60.3809 103.4H55.619V107.946H60.3809V103.4Z" fill="white"/>
<path d="M65.1429 98.9086H60.381V103.454H65.1429V98.9086Z" fill="white"/>
<path d="M65.1429 103.4H60.381V107.946H65.1429V103.4Z" fill="white"/>
<path d="M74.6667 98.9086H69.9048V103.454H74.6667V98.9086Z" fill="white"/>
<path d="M74.6667 103.4H69.9048V107.946H74.6667V103.4Z" fill="white"/>
<path d="M79.4286 98.9086H74.6667V103.454H79.4286V98.9086Z" fill="white"/>
<path d="M79.4286 103.4H74.6667V107.946H79.4286V103.4Z" fill="white"/>
<path d="M88.9524 98.9086H84.1905V103.454H88.9524V98.9086Z" fill="white"/>
<path d="M88.9524 103.4H84.1905V107.946H88.9524V103.4Z" fill="white"/>
<path d="M93.7142 98.9086H88.9524V103.454H93.7142V98.9086Z" fill="white"/>
<path d="M93.7142 103.4H88.9524V107.946H93.7142V103.4Z" fill="white"/>
<path d="M103.238 98.9086H98.4762V103.454H103.238V98.9086Z" fill="white"/>
<path d="M103.238 103.4H98.4762V107.946H103.238V103.4Z" fill="white"/>
<path d="M108 98.9086H103.238V103.454H108V98.9086Z" fill="white"/>
<path d="M108 103.4H103.238V107.946H108V103.4Z" fill="white"/>
</svg>
